<svg id="Layer_1" data-name="Layer 1" xmlns="http://www.w3.org/2000/svg" viewBox="0 0 200 70"><defs><style>.cls-1,.cls-2{fill:#002776;}.cls-1{fill-rule:evenodd;}.cls-3{fill:#335291;}.cls-4{fill:#4c689f;}.cls-5{fill:#667dad;}.cls-6{fill:#8093ba;}.cls-7{fill:#99a9c8;}.cls-8{fill:#b2bed6;}.cls-9{fill:#193d84;}</style></defs><path class="cls-1" d="M97.31,33.23H94l-7.47-8.51h-.69v8.51H83V14.55H94a2.66,2.66,0,0,1,2,.87,2.75,2.75,0,0,1,.84,2v4.39A2.55,2.55,0,0,1,94,24.72h-4ZM94,22.08V17.19H85.84v4.89Z"/><path class="cls-1" d="M113,30.34a2.87,2.87,0,0,1-.74,2,2.75,2.75,0,0,1-2.12.86H99.87V30.59h10.26V24.72H102.5a2.89,2.89,0,0,1-1.82-.57,2.63,2.63,0,0,1-1-1.53,2.9,2.9,0,0,1-.1-.79V17.44a2.84,2.84,0,0,1,.81-2,2.72,2.72,0,0,1,2.07-.89H112v2.64h-9.52v4.89h7.65a2.75,2.75,0,0,1,2.05.84,2.84,2.84,0,0,1,.81,2Z"/><path class="cls-1" d="M80.19,33.23H77.33V24.72H68.72v8.51H65.86V17.44a2.92,2.92,0,0,1,.76-2.05,2.76,2.76,0,0,1,2.1-.84h8.61a2.73,2.73,0,0,1,2,.94,2.73,2.73,0,0,1,.91,2ZM77.33,22.08V17.19H68.72v4.89Z"/><polygon class="cls-1" points="97.63 55.67 95.56 55.67 86.04 42.66 86.04 55.67 83.15 55.67 83.15 36.8 85.2 36.8 94.74 49.81 94.74 36.8 97.63 36.8 97.63 55.67"/><rect class="cls-2" x="100.45" y="36.8" width="2.89" height="18.87"/><polygon class="cls-1" points="119.62 36.8 113.84 55.67 110.92 55.67 105.14 36.8 107.9 36.8 112.39 51.4 116.85 36.8 119.62 36.8"/><path class="cls-1" d="M149.94,55.67H146.6L139,47.07h-.69v8.6h-2.89V36.8h11.09a2.7,2.7,0,0,1,2,.87,2.79,2.79,0,0,1,.85,2v4.43c0,2-1,2.92-2.89,2.92h-4.06Zm-3.39-11.26V39.47h-8.2v4.94Z"/><path class="cls-1" d="M165.78,52.75a2.85,2.85,0,0,1-.75,2,2.75,2.75,0,0,1-2.15.88H152.52V53h10.36V47.07h-7.7a2.89,2.89,0,0,1-1.84-.58,2.59,2.59,0,0,1-1-1.54,2.92,2.92,0,0,1-.1-.8V39.72a2.84,2.84,0,0,1,.82-2,2.72,2.72,0,0,1,2.09-.9h9.6v2.67h-9.62V44.4h7.72a2.76,2.76,0,0,1,2.07.85,2.88,2.88,0,0,1,.83,2.07Z"/><path class="cls-1" d="M183.07,55.67h-2.89v-8.6h-8.7v8.6h-2.89v-16a3,3,0,0,1,.77-2.07,2.76,2.76,0,0,1,2.12-.85h8.7a3.25,3.25,0,0,1,2.89,2.92ZM180.18,44.4V39.47h-8.7V44.4Z"/><polygon class="cls-1" points="197.47 55.67 185.88 55.67 185.88 36.8 188.78 36.8 188.78 53 197.47 53 197.47 55.67"/><polygon class="cls-1" points="132.99 39.47 132.99 36.8 124.29 36.8 124 36.8 121.4 36.8 121.4 55.67 123.9 55.67 124.29 55.67 132.99 55.67 132.99 53 124.29 53 124.29 47.07 131.88 47.07 131.88 44.4 124.29 44.4 124.29 39.47 132.99 39.47"/><path class="cls-1" d="M77.42,53H68.75V39.69L65.86,36.8h0v16a2.92,2.92,0,0,0,.77,2.07,2.7,2.7,0,0,0,2.12.85h8.67a2.91,2.91,0,0,0,2.12-.82,3,3,0,0,0,.8-2.1v-16H77.42Z"/><path class="cls-3" d="M49.32,31.47H34.22L30.69,35H49.32a3.44,3.44,0,0,0,.46,0,3.5,3.5,0,0,0,2.06-.91,3,3,0,0,0,.82-1.25,3.56,3.56,0,0,0,.17-.68,4.65,4.65,0,0,0,.05-.66V20.88a3.52,3.52,0,0,0-1-2.59,3.57,3.57,0,0,0-2.55-1H45.09a3.67,3.67,0,0,1,.25,1.31c0,.06,0,.12,0,.17a4.12,4.12,0,0,1-.66,2.08h4.65Z"/><polygon class="cls-3" points="30.44 20.88 38.12 20.88 40.27 18.73 38.86 17.32 30.44 17.32 30.44 20.88"/><path class="cls-4" d="M41.12,18.73,30.44,29.41v5L43.61,21.23a3.38,3.38,0,0,0,.31-.35,3.56,3.56,0,0,0,.81-2.1,3.07,3.07,0,0,0-.3-1.46,4.76,4.76,0,0,0-.36-.6,4,4,0,0,0-.44-.5L36.14,8.73a3.47,3.47,0,0,0-2.53-1.12,3.59,3.59,0,0,0-2.5,1.12l-3,3a3.58,3.58,0,0,1,1.1.75l.12.13a4.15,4.15,0,0,1,1,1.94l3.29-3.29Z"/><polygon class="cls-4" points="25.72 19.16 25.72 16.12 23.72 16.12 17.77 22.07 20.29 24.59 25.72 19.16"/><polygon class="cls-5" points="15.73 34.4 15.73 26.72 13.58 24.57 12.17 25.98 12.17 34.4 15.73 34.4"/><path class="cls-5" d="M26.31,15.52v15.1l3.53,3.53V15.52c0-.15,0-.31,0-.46A3.57,3.57,0,0,0,28.9,13a3,3,0,0,0-1.24-.82A4.38,4.38,0,0,0,26.31,12H15.73a3.5,3.5,0,0,0-2.59,1,3.57,3.57,0,0,0-1,2.55v4.23a3.57,3.57,0,0,1,1.3-.24h.18a4.17,4.17,0,0,1,2.08.67V15.52Z"/><path class="cls-2" d="M29.84,35.85V54.47c0,.16,0,.32,0,.47A3.57,3.57,0,0,0,30.79,57a3.06,3.06,0,0,0,1.24.82,3.56,3.56,0,0,0,.68.16,4.65,4.65,0,0,0,.66.05H44a3.5,3.5,0,0,0,2.59-1,3.58,3.58,0,0,0,1-2.56V35.6H44V54.47H33.37V39.38Z"/><path class="cls-6" d="M13.58,23.73,24.25,34.4h5L16.07,21.23l-.34-.31a3.61,3.61,0,0,0-2.11-.81,3,3,0,0,0-1.45.3,3.67,3.67,0,0,0-.6.36,4.11,4.11,0,0,0-.51.44L3.57,28.7a3.46,3.46,0,0,0-1.11,2.53,3.58,3.58,0,0,0,1.11,2.5l3,3a3.58,3.58,0,0,1,.75-1.1l.13-.12a4.15,4.15,0,0,1,1.94-1L6.09,31.21Z"/><polygon class="cls-6" points="19.44 44.56 14.01 39.13 10.97 39.13 10.97 41.13 16.92 47.08 19.44 44.56"/><path class="cls-7" d="M10.37,38.53h15.1L29,35H10.37a3.44,3.44,0,0,0-.46,0,3.44,3.44,0,0,0-2.06.91A3,3,0,0,0,7,37.18a3.76,3.76,0,0,0-.17.68,4.91,4.91,0,0,0-.05.67V49.12a3.47,3.47,0,0,0,1,2.58,3.61,3.61,0,0,0,2.56,1H14.6a3.47,3.47,0,0,1-.25-1.31,1.09,1.09,0,0,1,0-.18A4,4,0,0,1,15,49.12H10.37Z"/><polygon class="cls-7" points="29.1 49.12 21.57 49.12 19.42 51.27 20.83 52.68 29.1 52.68 29.1 49.12"/><path class="cls-8" d="M18.57,51.27,29.25,40.59v-5L16.07,48.77a3.27,3.27,0,0,0-.3.35,3.44,3.44,0,0,0-.81,2.1,3,3,0,0,0,.3,1.46,3.18,3.18,0,0,0,.36.6,5,5,0,0,0,.43.5l7.49,7.49a3.49,3.49,0,0,0,2.54,1.12,3.59,3.59,0,0,0,2.5-1.12l3-3a3.54,3.54,0,0,1-1.09-.75l-.12-.13a4.07,4.07,0,0,1-1-1.94l-3.29,3.29Z"/><polygon class="cls-8" points="39.4 45.41 33.97 50.84 33.97 53.87 35.97 53.87 41.91 47.93 39.4 45.41"/><polygon class="cls-9" points="30.44 35.6 35.44 35.6 43.36 43.53 43.36 48.52 30.44 35.6"/><polygon class="cls-9" points="40.25 25.44 45.68 30.87 48.72 30.87 48.72 28.87 42.77 22.92 40.25 25.44"/><path class="cls-9" d="M56.12,36.27l-3-3a3.8,3.8,0,0,1-.76,1.1l-.12.12a4.15,4.15,0,0,1-1.94,1l3.29,3.28-5.46,5.46v5a4.57,4.57,0,0,0,.49-.42l7.49-7.49a3.46,3.46,0,0,0,1.11-2.54A3.56,3.56,0,0,0,56.12,36.27Z"/></svg>